<svg width="1440" height="162" viewBox="0 0 1440 162" fill="none" xmlns="http://www.w3.org/2000/svg">
<rect x="1131.79" y="84.2399" width="31.0333" height="31.0333" fill="#FEBA08"/>
<rect x="1094.55" y="84.2399" width="31.0333" height="31.0333" fill="#05A6F0"/>
<rect x="1131.79" y="47" width="31.0333" height="31.0333" fill="#80BC06"/>
<rect x="1094.55" y="47" width="31.0333" height="31.0333" fill="#F25325"/>
<path d="M686.861 114L681.424 45.25H746.674L741.236 114L714.049 122.25L686.861 114Z" fill="#1172B8"/>
<path d="M741.236 50.75H714.049V118.125L735.799 111.25L741.236 50.75Z" fill="#33AADD"/>
<path d="M723.564 85.125H696.377L695.018 75.5L716.768 68.625H695.018L693.658 60.375H735.799L734.439 70L716.768 76.875H733.08L730.361 103L714.049 108.5L697.736 103L696.377 89.25H704.533L705.893 96.125L714.049 98.875L722.205 96.125L723.564 85.125Z" fill="white"/>
<path d="M898.861 114.125L893.424 46.1562H958.674L953.236 114.125L926.049 122.281L898.861 114.125Z" fill="#E44D26"/>
<path d="M953.236 51.5938H926.049V118.203L947.799 111.406L953.236 51.5938Z" fill="#F16529"/>
<path d="M908.377 85.5781L905.658 59.75H947.799L946.439 67.9062H913.814L915.174 77.4219H945.08L942.361 103.25L926.049 108.688L909.736 103.25L908.377 89.6562H916.533L917.893 96.4531L926.049 99.1719L934.205 96.4531L935.564 85.5781H908.377Z" fill="white"/>
<circle cx="505.285" cy="81.2637" r="40.2637" fill="#8892BF"/>
<path d="M501.808 67.2589H505.551L504.493 72.9666H507.856C509.701 73.0067 511.075 73.425 511.979 74.2217C512.902 75.0184 513.173 76.5329 512.793 78.764L510.976 88.7152H507.178L508.914 79.2123C509.095 78.216 509.041 77.5089 508.752 77.0905C508.462 76.6722 507.838 76.463 506.88 76.463L503.869 76.4331L501.645 88.7152H497.902L501.808 67.2589Z" fill="white"/>
<path fill-rule="evenodd" clip-rule="evenodd" d="M484.656 72.9667H491.925C494.059 72.9865 495.605 73.6642 496.563 74.9988C497.522 76.3334 497.838 78.1563 497.513 80.4675C497.386 81.5235 497.106 82.5593 496.672 83.5753C496.256 84.5914 495.677 85.5076 494.936 86.3246C494.032 87.3604 493.064 88.0178 492.034 88.2969C491.003 88.576 489.936 88.7153 488.833 88.7153H485.578L484.547 94.3931H480.777L484.656 72.9667ZM486.202 85.3385L487.824 76.4033H488.372C488.571 76.4033 488.779 76.3932 488.996 76.3734C490.442 76.3537 491.645 76.5031 492.603 76.8217C493.58 77.1403 493.905 78.3457 493.58 80.4376C493.182 82.9281 492.404 84.3822 491.247 84.8006C490.09 85.1992 488.643 85.3881 486.907 85.3683H486.527C486.419 85.3683 486.31 85.3582 486.202 85.3385Z" fill="white"/>
<path fill-rule="evenodd" clip-rule="evenodd" d="M524.082 72.9667H516.813L512.934 94.3931H516.704L517.735 88.7153H520.99C522.093 88.7153 523.16 88.576 524.191 88.2969C525.221 88.0178 526.189 87.3604 527.093 86.3246C527.834 85.5076 528.413 84.5914 528.829 83.5753C529.263 82.5593 529.543 81.5235 529.67 80.4675C529.995 78.1563 529.679 76.3334 528.72 74.9988C527.762 73.6642 526.216 72.9865 524.082 72.9667ZM519.981 76.4033L518.359 85.3385C518.467 85.3582 518.576 85.3683 518.684 85.3683H519.064C520.8 85.3881 522.247 85.1992 523.404 84.8006C524.561 84.3822 525.339 82.9281 525.737 80.4376C526.062 78.3457 525.737 77.1403 524.76 76.8217C523.802 76.5031 522.599 76.3537 521.153 76.3734C520.936 76.3932 520.728 76.4033 520.529 76.4033H519.981Z" fill="white"/>
<path d="M308.64 61.1642C325.94 47.7339 317.061 39 317.061 39C318.382 52.8841 302.767 56.1624 298.581 65.7031C295.724 72.2135 300.537 77.914 308.634 85.0985C307.918 83.5073 306.814 81.9611 305.696 80.3958C301.884 75.0568 297.913 69.495 308.64 61.1642Z" fill="#E76F00"/>
<path d="M311.402 88.0438C311.402 88.0438 316.606 83.8446 312.485 79.1781C298.513 63.3469 327.766 56.1624 327.766 56.1624C309.906 64.7666 312.572 69.8737 317.061 76.078C321.868 82.731 311.402 88.0438 311.402 88.0438Z" fill="#E76F00"/>
<path d="M326.727 100.566C342.758 92.3734 335.346 84.5008 330.172 85.5614C328.904 85.821 328.339 86.0459 328.339 86.0459C328.339 86.0459 328.809 85.3207 329.708 85.0067C339.944 81.4682 347.816 95.4433 326.404 100.978C326.404 100.979 326.652 100.761 326.727 100.566Z" fill="#5382A1"/>
<path d="M293.367 90.1968C283.337 88.8796 298.867 85.2522 298.867 85.2522C298.867 85.2522 292.836 84.8522 285.418 88.3781C276.648 92.5502 307.114 94.4477 322.885 90.3689C324.524 89.268 326.791 88.3136 326.791 88.3136C326.791 88.3136 320.337 89.4471 313.91 89.9803C306.045 90.6283 297.603 90.7544 293.367 90.1968Z" fill="#5382A1"/>
<path d="M297.184 98.019C291.59 97.4501 295.253 94.7842 295.253 94.7842C280.779 99.5081 303.306 104.865 323.53 99.0495C321.381 98.3042 320.014 96.9412 320.014 96.9412C310.129 98.8128 304.417 98.7528 297.184 98.019Z" fill="#5382A1"/>
<path d="M299.621 106.483C294.031 105.851 297.297 103.984 297.297 103.984C284.158 107.594 305.289 115.052 322.016 108.002C319.277 106.955 317.315 105.745 317.315 105.745C309.853 107.134 306.392 107.243 299.621 106.483Z" fill="#5382A1"/>
<path d="M334.609 110.789C334.609 110.789 337.025 112.747 331.947 114.261C322.292 117.138 291.76 118.006 283.278 114.376C280.229 113.072 285.947 111.262 287.746 110.882C289.621 110.482 290.693 110.556 290.693 110.556C287.302 108.207 268.777 115.168 281.283 117.162C315.389 122.601 343.455 114.713 334.609 110.789Z" fill="#5382A1"/>
<path d="M340.021 115.067C339.462 122.227 315.831 123.733 300.442 122.764C290.403 122.131 288.391 120.549 288.362 120.526C297.97 122.084 314.169 122.367 327.304 119.937C338.946 117.781 340.021 115.067 340.021 115.067Z" fill="#5382A1"/>
</svg>
